<svg xmlns="http://www.w3.org/2000/svg" style="display: none;">
  <symbol id="icon-placeholder" viewBox="0 0 24 24" fill="none" stroke="currentColor">
    <path stroke-linecap="round" stroke-linejoin="round" stroke-width="1.5"
      d="M15 10l4.553-2.276A1 1 0 0121 8.618v6.764a1 1 0 01-1.447.894L15 14M5 18h8a2 2 0 002-2V8a2 2 0 00-2-2H5a2 2 0 00-2 2v8a2 2 0 002 2z">
    </path>
  </symbol>
  <symbol id="icon-share" viewBox="0 0 20 20" fill="currentColor">
    <path
      d="M15 8a3 3 0 10-2.977-2.63l-4.94 2.47a3 3 0 100 4.319l4.94 2.47a3 3 0 10.895-1.789l-4.94-2.47a3.027 3.027 0 000-.74l4.94-2.47C13.456 7.68 14.19 8 15 8z">
    </path>
  </symbol>
  <symbol id="icon-stop-share" viewBox="0 0 20 20" fill="currentColor">
    <path fill-rule="evenodd"
      d="M10 18a8 8 0 100-16 8 8 0 000 16zM8.707 7.293a1 1 0 00-1.414 1.414L8.586 10l-1.293 1.293a1 1 0 101.414 1.414L10 11.414l1.293 1.293a1 1 0 001.414-1.414L11.414 10l1.293-1.293a1 1 0 00-1.414-1.414L10 8.586 8.707 7.293z"
      clip-rule="evenodd"></path>
  </symbol>
  <symbol id="icon-record" viewBox="0 0 20 20" fill="currentColor">
    <path fill-rule="evenodd"
      d="M10 18a8 8 0 100-16 8 8 0 000 16zM9.555 7.168A1 1 0 008 8v4a1 1 0 001.555.832l3-2a1 1 0 000-1.664l-3-2z"
      clip-rule="evenodd"></path>
  </symbol>
  <symbol id="icon-stop-record" viewBox="0 0 20 20" fill="currentColor">
    <path fill-rule="evenodd"
      d="M10 18a8 8 0 100-16 8 8 0 000 16zM8 7a1 1 0 00-1 1v4a1 1 0 001 1h4a1 1 0 001-1V8a1 1 0 00-1-1H8z"
      clip-rule="evenodd"></path>
  </symbol>
  <symbol id="icon-download" viewBox="0 0 20 20" fill="currentColor">
    <path fill-rule="evenodd"
      d="M3 17a1 1 0 011-1h12a1 1 0 110 2H4a1 1 0 01-1-1zm3.293-7.707a1 1 0 011.414 0L9 10.586V3a1 1 0 112 0v7.586l1.293-1.293a1 1 0 111.414 1.414l-3 3a1 1 0 01-1.414 0l-3-3a1 1 0 010-1.414z"
      clip-rule="evenodd"></path>
  </symbol>
</svg>
